<svg xmlns="http://www.w3.org/2000/svg" width="1024" height="1024" viewBox="0 0 1024 1024">
  <defs>
    <linearGradient id="pinkStroke" x1="210" y1="166" x2="806" y2="815" gradientUnits="userSpaceOnUse">
      <stop offset="0" stop-color="#ff9bd8"/>
      <stop offset="0.48" stop-color="#ff2f9d"/>
      <stop offset="1" stop-color="#d70a72"/>
    </linearGradient>
    <linearGradient id="hood" x1="296" y1="154" x2="696" y2="579" gradientUnits="userSpaceOnUse">
      <stop offset="0" stop-color="#30333d"/>
      <stop offset="1" stop-color="#11131a"/>
    </linearGradient>
    <linearGradient id="face" x1="354" y1="250" x2="656" y2="586" gradientUnits="userSpaceOnUse">
      <stop offset="0" stop-color="#fff8fb"/>
      <stop offset="1" stop-color="#ffe1ef"/>
    </linearGradient>
    <filter id="softShadow" x="-18%" y="-18%" width="136%" height="142%">
      <feDropShadow dx="0" dy="22" stdDeviation="24" flood-color="#5f0a35" flood-opacity="0.28"/>
    </filter>
    <filter id="glow" x="-60%" y="-80%" width="220%" height="260%">
      <feGaussianBlur stdDeviation="8" result="blur"/>
      <feMerge>
        <feMergeNode in="blur"/>
        <feMergeNode in="SourceGraphic"/>
      </feMerge>
    </filter>
  </defs>

  <g filter="url(#softShadow)">
    <path d="M263 479C250 325 358 187 509 187C660 187 769 325 756 479C747 588 650 651 509 651C368 651 272 588 263 479Z" fill="url(#hood)"/>
    <path d="M282 410C246 416 221 448 229 485C238 527 277 552 318 540L310 437C303 420 294 411 282 410Z" fill="#252832"/>
    <path d="M736 410C772 416 797 448 789 485C780 527 741 552 700 540L708 437C715 420 724 411 736 410Z" fill="#252832"/>
    <path d="M350 365C363 291 424 242 509 242C594 242 655 291 668 365C690 492 618 584 509 584C400 584 328 492 350 365Z" fill="url(#face)"/>
    <path d="M345 376C370 287 425 248 509 248C593 248 648 287 673 376C631 349 584 336 509 336C434 336 387 349 345 376Z" fill="#1c1f28"/>
    <path d="M437 338C458 327 482 321 509 321C536 321 560 327 581 338C560 352 536 359 509 359C482 359 458 352 437 338Z" fill="#f7d03f"/>
    <circle cx="423" cy="444" r="33" fill="#372436"/>
    <circle cx="595" cy="444" r="33" fill="#372436"/>
    <circle cx="434" cy="431" r="10" fill="#ffffff"/>
    <circle cx="606" cy="431" r="10" fill="#ffffff"/>
    <path d="M480 494C497 507 521 507 538 494" fill="none" stroke="#b60d63" stroke-width="11" stroke-linecap="round"/>
    <ellipse cx="391" cy="491" rx="30" ry="17" fill="#ff8fc2" opacity="0.62"/>
    <ellipse cx="627" cy="491" rx="30" ry="17" fill="#ff8fc2" opacity="0.62"/>
    <path d="M350 180L395 257L331 274Z" fill="#272a34"/>
    <path d="M668 180L623 257L687 274Z" fill="#272a34"/>
    <path d="M509 173C525 173 538 185 538 201C538 217 525 229 509 229C493 229 480 217 480 201C480 185 493 173 509 173Z" fill="#f5cf35"/>
  </g>

  <g filter="url(#glow)">
    <path d="M244 612H369L401 557L451 695L506 512L552 612H778" fill="none" stroke="#ffffff" stroke-width="21" stroke-linecap="round" stroke-linejoin="round"/>
    <path d="M244 612H369L401 557L451 695L506 512L552 612H778" fill="none" stroke="url(#pinkStroke)" stroke-width="12" stroke-linecap="round" stroke-linejoin="round"/>
  </g>

  <g>
    <ellipse cx="509" cy="677" rx="122" ry="42" fill="none" stroke="url(#pinkStroke)" stroke-width="18"/>
    <path d="M387 677V737C387 760 442 779 509 779C576 779 631 760 631 737V677" fill="none" stroke="url(#pinkStroke)" stroke-width="18" stroke-linecap="round"/>
    <path d="M387 708C387 731 442 750 509 750C576 750 631 731 631 708" fill="none" stroke="#ff8ecb" stroke-width="11" stroke-linecap="round"/>
  </g>

  <text x="512" y="905" text-anchor="middle"
        font-family="Orbitron, Eurostile, Montserrat, Segoe UI, Arial, sans-serif"
        font-size="112" font-weight="800" letter-spacing="2"
        fill="url(#pinkStroke)">SQLPulse</text>
</svg>
